<?xml version="1.0" encoding="UTF-8"?>
<svg id="Capa_1" data-name="Capa 1" xmlns="http://www.w3.org/2000/svg" viewBox="0 0 303.14 303.05">
  <defs>
    <style>
      .cls-1 {
        fill: #fff;
      }

      .cls-2 {
        fill: #f5a860;
      }

      .cls-3 {
        fill: #fecc9b;
      }

      .cls-4 {
        fill: #52362b;
      }

      .cls-5 {
        fill: #d8505e;
      }

      .cls-6 {
        fill: #a13b9c;
      }

      .cls-7 {
        fill: #f48939;
      }

      .cls-8 {
        fill: #7349b8;
      }

      .cls-9 {
        fill: #120704;
      }

      .cls-10 {
        fill: #8fd6e8;
      }
    </style>
  </defs>
  <path class="cls-6" d="M226.16,19.61c-.51,.43-.68,.92-.49,1.47,.08,.23,.23,.39,.46,.47,1.53,.53,2.35,1.6,2.48,3.19,.03,.4,.25,.65,.64,.74,1.82,.41,2.52,1.58,2.1,3.51-.07,.33,.04,.68,.3,.9,1.43,1.21,2.33,2.71,2.71,4.52,.09,.44-.2,.88-.64,.97-.16,.03-.33,.02-.48-.05l-2.44-1.05c-.27-.11-.52-.28-.73-.49-.45-.44-.95-.59-1.5-.45-.34,.09-.71,.02-1-.18-7.82-5.46-16.22-9.45-25.21-11.98-12.08-4.53-24.52-7.28-37.31-8.27-28.92-2.23-55.5,2.26-80.91,16.32-.48-.14-.6-.36-.37-.66,1.05-1.34,2.33-2.39,3.86-3.15,.29-.14,.55-.34,.75-.59,.79-.99,1.79-1.59,2.98-1.78,2.11-.33,3.22-.52,3.33-.56,2.94-1.05,5.72-2.42,8.35-4.11,1.25-.81,1.63-1.81,1.14-3-.17-.43-.68-1.22-1.55-2.38-.13-.18-.17-.38-.11-.59,.03-.1,.12-.23,.25-.4,.25-.32,.19-.79-.13-1.04-.15-.11-.33-.17-.52-.15l-1.29,.11c-.37,.03-.4-.07-.11-.3,.18-.15,.38-.25,.61-.3,.15-.04,.15-.07,0-.09-.02,0-.04,0-.06,0-5.19,2.11-10.39,4.2-15.59,6.27-3.39,1.35-6.35,2.89-8.86,4.64-1.45,1.01-2.87,1.42-4.25,1.24,47.66-28.88,104.9-29.85,153.59-2.78Z"/>
  <path class="cls-5" d="M84.14,29.23C50.24,48.83,27.85,77.25,16.96,114.49l-.36,.29c-.32,.25-.52,.17-.59-.23l-.27-1.45c-.09-.52-.4-.77-.93-.75l-7.29,.29c-.3,.01-.56,.18-.7,.44-.14,.27-.18,.51-.13,.74,.05,.21,.02,.41-.1,.59l-2.27,3.45c-.09,.13-.19,.15-.31,.06-.09-.07-.18-.1-.28-.1C12.49,81.34,31.81,51.91,61.7,29.53c3.61-2.71,7.23-5.09,10.87-7.14,1.38,.18,2.8-.23,4.25-1.24,2.51-1.75,5.47-3.29,8.86-4.64,5.2-2.07,10.4-4.16,15.59-6.27,.02,0,.04,0,.06,0,.15,.02,.15,.05,0,.09-.23,.05-.43,.15-.61,.3-.29,.23-.26,.33,.11,.3l1.29-.11c.41-.04,.77,.27,.8,.67,.02,.19-.04,.37-.15,.52-.13,.17-.22,.3-.25,.4-.06,.21-.02,.41,.11,.59,.87,1.16,1.38,1.95,1.55,2.38,.49,1.19,.11,2.19-1.14,3-2.63,1.69-5.41,3.06-8.35,4.11-.11,.04-1.22,.23-3.33,.56-1.19,.19-2.19,.79-2.98,1.78-.2,.25-.46,.45-.75,.59-1.53,.76-2.81,1.81-3.86,3.15-.23,.3-.11,.52,.37,.66Z"/>
  <path class="cls-1" d="M202.36,21.18c86.61,35.08,117.09,141.62,59.49,216.1-22.16,27.93-52.91,46.66-88,52.05-38.31,5.88-73.4-2.61-105.28-25.47-22.73-17.25-38.96-39.21-48.67-65.88-9.35-27.41-10.33-55.24-2.94-83.49C27.85,77.25,50.24,48.83,84.14,29.23c25.41-14.06,51.99-18.55,80.91-16.32,12.79,.99,25.23,3.74,37.31,8.27ZM65.98,249.08c50.06,42.97,123.11,43.08,172.41-1.19,23.1-20.8,36.94-46.06,41.51-75.77C292.97,87.31,223.27,13.95,138.34,22.25c-4.53,.44-9.36,1.51-14.02,2.4-35.74,6.84-67.38,31.37-85.27,61.98-15.47,26.48-21.13,59.8-14.8,90.38,5.87,28.4,19.78,52.42,41.73,72.07Z"/>
  <path class="cls-8" d="M226.16,19.61c97.1,56.17,104,192.27,11.25,256.94l-2.43,.19c-.39,.03-.62-.14-.71-.51-.3-1.21-.06-2.29,.72-3.24,.25-.32,.41-.68,.48-1.08,.39-2.33,1.46-4.29,3.21-5.88,.21-.19,.34-.46,.35-.74,.1-2.37,1.08-4.21,2.93-5.53,.27-.19,.48-.43,.63-.72,.86-1.59,2.6-2.09,3.59-3.07,1.3-1.27,2.61-2.53,3.92-3.78,.19-.18,1.45-1.49,3.76-3.92,1.27-1.34,2.95-2.9,5.04-4.68,2.02-1.73,3-3.83,2.95-6.31,57.6-74.48,27.12-181.02-59.49-216.1,8.99,2.53,17.39,6.52,25.21,11.98,.29,.2,.66,.27,1,.18,.55-.14,1.05,.01,1.5,.45,.21,.21,.46,.38,.73,.49l2.44,1.05c.42,.17,.9-.02,1.07-.44,.06-.15,.08-.32,.05-.48-.38-1.81-1.28-3.31-2.71-4.52-.26-.22-.37-.57-.3-.9,.42-1.93-.28-3.1-2.1-3.51-.39-.09-.61-.34-.64-.74-.13-1.59-.95-2.66-2.48-3.19-.23-.08-.38-.24-.46-.47-.19-.55-.02-1.04,.49-1.47Z"/>
  <path class="cls-10" d="M238.39,247.89l-1.25-7.67c-2.06-12.49-9.59-20.59-20.24-26.61-11.73-6.63-23.65-11.26-35.76-13.89l-14.44-2.61,.31-7.5c.04-.93,.6-1.76,1.46-2.14,10.28-4.61,18.37-9.33,25.52-17.96,6.06-7.3,9.11-17.19,11.68-26.49,.1-.36,.47-.58,.84-.48,.2,.05,.36,.2,.44,.39,.07,.16,.45,.23,1.13,.21,3.05-.08,4.58-1.76,5.66-4.6,3.42-8.95,3.05-17.84-1.1-26.65-1.03-2.2-2.53-3.09-4.5-2.67,.59-4.66,.74-9.35,.45-14.07-.25-4.17-1.05-7.91-2.41-11.21-1.49-3.6-3.43-6.93-5.82-9.99-.22-.29-.17-.69,.11-.9,.03-.02,.06-.04,.09-.06,3.31-1.75,6.81-2.97,10.5-3.67,.41-.07,.69-.46,.62-.88-.04-.25-.2-.46-.43-.56-5.64-2.67-11.61-3.62-17.9-2.85-.24,.03-.46-.15-.49-.39-.01-.1,0-.19,.06-.27,3.29-5.4,7.25-10.25,11.87-14.56,.25-.23,.21-.29-.11-.19-12.54,3.88-25.33,5.19-38.37,3.93-8.86-.86-13.54-1.29-14.05-1.29-24.73-.14-55.86,14.03-57.67,42.38-.16,2.41-.15,7.17,.04,14.3-2.89,.91-4.92,3.47-6.09,7.69-1.94,6.98-1.97,13.41-.08,19.28,1.1,3.42,3.78,8.26,7.37,7.52,.97-.2,1.95,.33,2.32,1.25,2.48,6.23,5,13.54,8,18.73,6.95,12.04,16.69,18.56,29.17,24.18,.62,.28,1.03,.9,1.02,1.59v7.84s-14.38,2.8-14.38,2.8c-12.13,3.03-23.62,7.72-34.45,14.07-11.23,6.57-19.81,16.5-21.68,29.78-.19,1.39-.03,2.38,.48,2.98l-.33,2.43c-21.95-19.65-35.86-43.67-41.73-72.07-6.33-30.58-.67-63.9,14.8-90.38,17.89-30.61,49.53-55.14,85.27-61.98,4.66-.89,9.49-1.96,14.02-2.4,84.93-8.3,154.63,65.06,141.56,149.87-4.57,29.71-18.41,54.97-41.51,75.77Z"/>
  <path class="cls-4" d="M208.14,109.22l-.76,28.51c-.01,.49-.15,.52-.41,.11-.17-.28-.26-.59-.29-.92-.74-9.99-4.1-18.91-10.08-26.76l.51-.04c.48-.04,.56-.24,.24-.6-3.76-4.23-8.36-6.62-13.79-7.18-3.87-.4-8.88-.59-13.67-.37-11.32,.53-22.65-.51-33.94-1.22-5.63-.35-12.6-1.51-20.92-3.48-1.52-.36-3.19-.28-3.8,1.26-3.39,8.46-6.79,18.54-10.2,30.25-.99,4.11-2.22,7.78-3.7,11-.74,1.61-1.15,1.53-1.24-.24l-1.46-30.6c-.19-7.13-.2-11.89-.04-14.3,1.81-28.35,32.94-42.52,57.67-42.38,.51,0,5.19,.43,14.05,1.29,13.04,1.26,25.83-.05,38.37-3.93,.32-.1,.36-.04,.11,.19-4.62,4.31-8.58,9.16-11.87,14.56-.12,.21-.05,.48,.16,.6,.08,.05,.18,.07,.27,.06,6.29-.77,12.26,.18,17.9,2.85,.38,.18,.55,.63,.37,1.01-.1,.23-.32,.39-.56,.43-3.69,.7-7.19,1.92-10.5,3.67-.31,.16-.43,.55-.26,.86,.02,.03,.04,.07,.06,.1,2.39,3.06,4.33,6.39,5.82,9.99,1.36,3.3,2.16,7.04,2.41,11.21,.29,4.72,.14,9.41-.45,14.07Z"/>
  <path class="cls-9" d="M196.6,110.16c-5.34-5.69-10.37-6.96-18.61-6.93-5.55,.03-11.12,.03-16.7,.01-16.2-.05-32.27-1.86-48.21-5.44-.37-.08-.61,.05-.74,.4l-11.31,30.58c3.41-11.71,6.81-21.79,10.2-30.25,.61-1.54,2.28-1.62,3.8-1.26,8.32,1.97,15.29,3.13,20.92,3.48,11.29,.71,22.62,1.75,33.94,1.22,4.79-.22,9.8-.03,13.67,.37,5.43,.56,10.03,2.95,13.79,7.18,.32,.36,.24,.56-.24,.6l-.51,.04Z"/>
  <path class="cls-3" d="M196.6,110.16c5.98,7.85,9.34,16.77,10.08,26.76,.03,.33,.12,.64,.29,.92,.26,.41,.4,.38,.41-.11l.76-28.51c1.97-.42,3.47,.47,4.5,2.67,4.15,8.81,4.52,17.7,1.1,26.65-1.08,2.84-2.61,4.52-5.66,4.6-.68,.02-1.06-.05-1.13-.21-.15-.34-.55-.5-.89-.35-.19,.08-.33,.25-.39,.44-2.57,9.3-5.62,19.19-11.68,26.49-7.15,8.63-15.24,13.35-25.52,17.96-.86,.38-1.42,1.21-1.46,2.14l-.31,7.5-14.55,12.33c-.35,.29-.85,.29-1.19,0l-14.63-12.42v-7.84c.02-.69-.39-1.31-1.01-1.59-12.48-5.62-22.22-12.14-29.17-24.18-3-5.19-5.52-12.5-8-18.73-.37-.92-1.35-1.45-2.32-1.25-3.59,.74-6.27-4.1-7.37-7.52-1.89-5.87-1.86-12.3,.08-19.28,1.17-4.22,3.2-6.78,6.09-7.69l1.46,30.6c.09,1.77,.5,1.85,1.24,.24,1.48-3.22,2.71-6.89,3.7-11l11.31-30.58c.13-.35,.37-.48,.74-.4,15.94,3.58,32.01,5.39,48.21,5.44,5.58,.02,11.15,.02,16.7-.01,8.24-.03,13.27,1.24,18.61,6.93Zm-61.47,22.52c0-3.49-2.83-6.32-6.32-6.32h0c-3.49,0-6.32,2.83-6.32,6.32h0c0,3.49,2.83,6.32,6.32,6.32s6.32-2.83,6.32-6.32Zm45.53,.02c0-3.5-2.84-6.34-6.34-6.34s-6.34,2.84-6.34,6.34,2.84,6.34,6.34,6.34,6.34-2.84,6.34-6.34Zm-12.92,31.11c-8.34,7.1-19.04,8.57-28.48,2.69-1.11-.68-2.35-2.09-3.5-2.74-.33-.16-.72-.03-.89,.29-.13,.25-.08,.55,.11,.75,3.49,3.45,6.96,5.57,10.43,6.35,7.89,1.78,14.96,.21,21.21-4.72,.8-.63,1.33-1.41,1.58-2.32,.17-.61,.01-.71-.46-.3Z"/>
  <path class="cls-7" d="M16.96,114.49c-7.39,28.25-6.41,56.08,2.94,83.49-1.07,.84-1.27,1.57-.6,2.19,.45,.4,.48,1.1,.07,1.54-.14,.15-.31,.26-.51,.32-1.26,.35-2.66,.36-4.19,.02-.26-.06-.5-.05-.72,.03-.21,.07-.4,.15-.58,.25-.35,.2-.7,.2-1.05-.01l-2.21-1.31c-.26-.15-.43-.38-.5-.67-.46-1.77-1.53-3.44-3.2-5.01-7.53-25.51-8.43-51.34-2.68-77.51,.1,0,.19,.03,.28,.1,.12,.09,.22,.07,.31-.06l2.27-3.45c.12-.18,.15-.38,.1-.59-.05-.23-.01-.47,.13-.74,.14-.26,.4-.43,.7-.44l7.29-.29c.53-.02,.84,.23,.93,.75l.27,1.45c.07,.4,.27,.48,.59,.23l.36-.29Z"/>
  <path class="cls-9" d="M135.13,132.68c0,3.49-2.83,6.32-6.32,6.32s-6.32-2.83-6.32-6.32,2.83-6.32,6.32-6.32h0c3.49,0,6.32,2.83,6.32,6.32h0Zm-1.88-.16c.67-.43,.82-1.4,.34-2.16h0c-.49-.76-1.43-1.02-2.1-.58-.67,.43-.82,1.4-.34,2.16h0c.49,.76,1.43,1.02,2.1,.58Z"/>
  <path class="cls-9" d="M180.66,132.7c0,3.5-2.84,6.34-6.34,6.34s-6.34-2.84-6.34-6.34,2.84-6.34,6.34-6.34,6.34,2.84,6.34,6.34Zm-2.82,0c.81,.03,1.48-.66,1.51-1.53,.03-.87-.6-1.6-1.4-1.63h0c-.81-.03-1.48,.66-1.51,1.53-.03,.87,.6,1.6,1.4,1.63h0Z"/>
  <ellipse class="cls-1" cx="132.37" cy="131.15" rx="1.45" ry="1.63" transform="translate(-49.94 92.62) rotate(-32.8)"/>
  <ellipse class="cls-1" cx="177.9" cy="131.13" rx="1.58" ry="1.46" transform="translate(40.64 304.35) rotate(-88)"/>
  <path class="cls-2" d="M139.26,166.5c9.44,5.88,20.14,4.41,28.48-2.69,.47-.41,.63-.31,.46,.3-.25,.91-.78,1.69-1.58,2.32-6.25,4.93-13.32,6.5-21.21,4.72-3.47-.78-6.94-2.9-10.43-6.35-.25-.27-.24-.68,.03-.93,.2-.19,.5-.23,.75-.11,1.15,.65,2.39,2.06,3.5,2.74Z"/>
  <path class="cls-5" d="M19.9,197.98c9.71,26.67,25.94,48.63,48.67,65.88-.37,.09-.59,.31-.66,.66-.07,.3,.03,.54,.28,.72,10.04,7.2,20.74,13.23,32.09,18.09,.07,.03,.11,.04,.12,.02,0,0,.01-.01,.02-.02,.02-.03,.03-.05,.02-.05l-.63,.02c-.46,.01-.52,.18-.19,.49,.41,.39,.42,.83,.01,1.31-.15,.18-.39,.26-.61,.19-2.81-.87-5.49-.57-8.04,.91-.17,.1-.39,.07-.52-.06-.69-.67-1.55-.83-2.57-.5-.29,.09-.59,.11-.9,.06-4.6-.85-8.2-2.16-10.81-3.92-5.28-3.56-9.6-5.96-12.97-7.2-27.53-19.94-46.47-46.36-56.8-79.25,1.67,1.57,2.74,3.24,3.2,5.01,.07,.29,.24,.52,.5,.67l2.21,1.31c.35,.21,.7,.21,1.05,.01,.18-.1,.37-.18,.58-.25,.22-.08,.46-.09,.72-.03,1.53,.34,2.93,.33,4.19-.02,.58-.17,.92-.78,.75-1.36-.06-.19-.16-.37-.31-.5-.67-.62-.47-1.35,.6-2.19Z"/>
  <path class="cls-1" d="M136.33,197.02l14.63,12.42c.34,.29,.84,.29,1.19,0l14.55-12.33,14.44,2.61-13.72,25.59c-.19,.35-.63,.49-.98,.3-.07-.04-.12-.08-.18-.14l-12.86-13.53c-1.22-1.28-2.44-1.28-3.66,0l-12.82,13.51c-.28,.29-.73,.3-1.02,.02-.05-.05-.1-.11-.13-.17l-13.81-25.48,14.37-2.8Z"/>
  <path class="cls-2" d="M181.14,199.72c12.11,2.63,24.03,7.26,35.76,13.89,10.65,6.02,18.18,14.12,20.24,26.61l.31,4.88c.02,.33-.09,.62-.34,.85-9.11,8.66-19.43,15.51-30.96,20.54-1.32,.58-2.17,1.77-3.6,2.17-1.51,.43-2.46,.73-2.83,.92-1.99,.98-4.72,2.03-8.18,3.16-3.33,1.09-6.7,2.11-10.1,3.07-1.37,.39-3.32,.67-5.87,.82-2.01,.13-3.98,.48-5.91,1.06-2.14,.64-3.93,.98-5.38,1.02-6.33,.17-12.65,.12-18.97-.15-.65-.03-2.82,.01-6.51,.11-4.81,.13-9.68-1.52-14.17-2.02-1.22-.14-2-.7-3.07-1.22-2.02-.97-4.39-1.11-6.56-1.83-.9-.3-2.06-.5-3.47-.61-2.2-.16-3.93-1.51-5.83-2.14-2.24-.74-3.26-1.19-4.93-2.06-1.47-.77-3.65-1.08-5.05-2.92-.22-.29-.5-.48-.84-.58-1.36-.42-2.55-1.18-3.57-2.28-.23-.25-.52-.42-.86-.51-1.15-.28-2.21-.74-3.16-1.38-1.97-1.33-2.98-2-3.03-2.03-3-1.68-5.76-3.23-8.55-5.42-3.07-2.41-6.21-4.75-9.4-7.02-.51-.6-.67-1.59-.48-2.98,1.87-13.28,10.45-23.21,21.68-29.78,10.83-6.35,22.32-11.04,34.45-14.07l13.81,25.48c.19,.35,.63,.47,.98,.28,.06-.04,.12-.08,.17-.13l12.82-13.51c1.22-1.28,2.44-1.28,3.66,0l12.86,13.53c.27,.29,.73,.3,1.02,.02,.05-.05,.1-.11,.14-.18l13.72-25.59Z"/>
  <path class="cls-6" d="M261.85,237.28c.05,2.48-.93,4.58-2.95,6.31-2.09,1.78-3.77,3.34-5.04,4.68-2.31,2.43-3.57,3.74-3.76,3.92-1.31,1.25-2.62,2.51-3.92,3.78-.99,.98-2.73,1.48-3.59,3.07-.15,.29-.36,.53-.63,.72-1.85,1.32-2.83,3.16-2.93,5.53-.01,.28-.14,.55-.35,.74-1.75,1.59-2.82,3.55-3.21,5.88-.07,.4-.23,.76-.48,1.08-.78,.95-1.02,2.03-.72,3.24,.09,.37,.32,.54,.71,.51l2.43-.19c-53.13,35.8-121.91,35.5-174.2-1.97,3.37,1.24,7.69,3.64,12.97,7.2,2.61,1.76,6.21,3.07,10.81,3.92,.31,.05,.61,.03,.9-.06,1.02-.33,1.88-.17,2.57,.5,.13,.13,.35,.16,.52,.06,2.55-1.48,5.23-1.78,8.04-.91,.22,.07,.46,0,.61-.19,.41-.48,.4-.92-.01-1.31-.33-.31-.27-.48,.19-.49l.63-.02s0,.02-.02,.05c0,0-.01,.01-.02,.02,0,.02-.05,.01-.12-.02-11.35-4.86-22.05-10.89-32.09-18.09-.25-.18-.35-.42-.28-.72,.07-.35,.29-.57,.66-.66,31.88,22.86,66.97,31.35,105.28,25.47,35.09-5.39,65.84-24.12,88-52.05Z"/>
  <path class="cls-3" d="M237.14,240.22l1.25,7.67c-49.3,44.27-122.35,44.16-172.41,1.19l.33-2.43c3.19,2.27,6.33,4.61,9.4,7.02,2.79,2.19,5.55,3.74,8.55,5.42,.05,.03,1.06,.7,3.03,2.03,.95,.64,2.01,1.1,3.16,1.38,.34,.09,.63,.26,.86,.51,1.02,1.1,2.21,1.86,3.57,2.28,.34,.1,.62,.29,.84,.58,1.4,1.84,3.58,2.15,5.05,2.92,1.67,.87,2.69,1.32,4.93,2.06,1.9,.63,3.63,1.98,5.83,2.14,1.41,.11,2.57,.31,3.47,.61,2.17,.72,4.54,.86,6.56,1.83,1.07,.52,1.85,1.08,3.07,1.22,4.49,.5,9.36,2.15,14.17,2.02,3.69-.1,5.86-.14,6.51-.11,6.32,.27,12.64,.32,18.97,.15,1.45-.04,3.24-.38,5.38-1.02,1.93-.58,3.9-.93,5.91-1.06,2.55-.15,4.5-.43,5.87-.82,3.4-.96,6.77-1.98,10.1-3.07,3.46-1.13,6.19-2.18,8.18-3.16,.37-.19,1.32-.49,2.83-.92,1.43-.4,2.28-1.59,3.6-2.17,11.53-5.03,21.85-11.88,30.96-20.54,.25-.23,.36-.52,.34-.85l-.31-4.88Z"/>
</svg>